<?xml version="1.0" standalone="no"?>
<!DOCTYPE svg PUBLIC "-//W3C//DTD SVG 20010904//EN"
 "http://www.w3.org/TR/2001/REC-SVG-20010904/DTD/svg10.dtd">
<svg version="1.0" xmlns="http://www.w3.org/2000/svg"
 width="900.000000pt" height="900.000000pt" viewBox="0 0 900.000000 900.000000"
 preserveAspectRatio="xMidYMid meet">

<g transform="translate(0.000000,900.000000) scale(0.100000,-0.100000)"
fill="#000000" stroke="none">
<path d="M0 7254 c0 -960 3 -1744 7 -1742 7 2 95 54 153 88 8 5 22 11 30 14 8
3 38 19 65 35 28 16 54 26 59 23 8 -4 -37 -30 -231 -132 -46 -24 -83 -47 -83
-52 0 -4 2 -8 5 -8 2 0 75 36 162 80 158 81 183 90 183 68 0 -6 3 -9 6 -5 6 6
22 -8 173 -147 47 -43 139 -122 204 -174 64 -52 117 -100 117 -108 0 -8 5 -14
11 -14 5 0 7 -4 4 -10 -3 -5 0 -10 7 -10 12 0 81 -76 151 -166 20 -26 14 -52
-7 -35 -9 8 -18 6 -30 -7 -9 -10 -14 -22 -11 -25 3 -4 2 -5 -2 -2 -10 8 -13
36 -3 30 10 -6 19 16 12 33 -6 18 -62 -35 -62 -60 0 -22 -38 -33 -84 -24 -23
5 -37 2 -46 -9 -8 -10 -18 -12 -29 -6 -9 5 -29 8 -46 7 -16 -1 -41 3 -55 10
-14 6 -58 16 -97 23 -40 7 -76 17 -79 22 -3 5 -10 7 -15 3 -9 -5 -59 7 -104
26 -11 4 -40 13 -64 20 -41 11 -125 66 -163 107 -9 10 -43 45 -77 78 l-61 59
0 -51 c0 -49 1 -51 68 -114 133 -124 323 -288 428 -369 56 -44 179 -138 238
-183 45 -34 285 -223 346 -272 30 -25 68 -55 84 -67 16 -13 57 -45 92 -73 62
-49 148 -112 287 -209 37 -26 67 -50 67 -55 0 -4 -19 -15 -42 -26 -92 -40
-153 -71 -168 -86 -9 -9 -43 -21 -76 -27 -59 -12 -82 -15 -204 -27 -85 -8
-203 -28 -430 -71 -307 -58 -392 -77 -485 -109 -38 -13 -77 -23 -85 -22 -8 1
-39 -5 -67 -12 -38 -11 -53 -20 -53 -32 0 -18 17 -18 200 1 41 4 120 7 176 6
l100 -1 146 -72 c80 -40 150 -73 155 -73 8 0 54 -23 160 -81 52 -28 123 -79
195 -140 26 -22 47 -32 69 -31 18 0 40 -7 52 -19 21 -20 53 -27 42 -9 -3 6 -2
10 3 10 16 0 22 -13 11 -26 -8 -9 -5 -16 11 -24 11 -6 25 -8 30 -5 5 3 8 0 6
-7 -3 -7 31 -42 74 -78 43 -36 95 -86 115 -112 21 -27 41 -48 46 -48 5 0 30
-20 57 -45 30 -29 56 -45 72 -45 29 0 107 -60 140 -107 12 -18 31 -42 41 -54
11 -12 19 -25 19 -28 0 -7 68 -81 214 -231 125 -130 230 -249 282 -321 42 -58
104 -157 104 -166 0 -3 15 -31 34 -62 37 -60 57 -134 75 -276 7 -49 20 -137
31 -195 25 -145 41 -248 45 -295 2 -22 6 -62 10 -90 15 -115 20 -206 12 -214
-4 -4 -2 -30 6 -57 9 -27 24 -89 35 -139 12 -49 37 -161 58 -247 l37 -158
3068 0 3069 0 0 4500 0 4500 -4500 0 -4500 0 0 -1746z m5934 1666 l129 0 -27
-25 c-14 -13 -26 -31 -26 -40 0 -8 -4 -15 -10 -15 -5 0 -13 -18 -16 -40 -4
-22 -10 -40 -13 -40 -11 0 -41 -57 -41 -78 0 -11 -7 -22 -15 -26 -8 -3 -15
-12 -15 -20 0 -8 -13 -23 -30 -32 -19 -12 -26 -21 -18 -25 9 -6 9 -11 -1 -23
-10 -12 -16 -13 -32 -3 -23 14 -26 42 -4 33 8 -3 15 -1 15 4 0 6 -5 10 -11 10
-8 0 -10 17 -6 55 5 49 3 55 -13 55 -10 0 -20 -9 -23 -21 -3 -12 -10 -18 -16
-14 -7 3 -8 0 -5 -9 3 -9 2 -16 -4 -16 -6 0 -31 -16 -56 -35 -26 -19 -55 -35
-66 -35 -11 0 -20 -6 -20 -14 0 -8 -10 -18 -21 -21 -12 -4 -18 -10 -13 -14 14
-10 12 -50 -3 -56 -11 -4 -13 1 -8 18 6 17 4 19 -5 11 -13 -13 -10 -49 5 -50
11 -1 37 -10 75 -26 14 -6 33 -13 44 -15 10 -2 69 -23 130 -48 61 -24 123 -47
139 -51 46 -11 48 -30 22 -160 -42 -205 -68 -304 -81 -304 -6 0 -17 7 -24 15
-19 23 -81 18 -134 -10 -26 -14 -49 -25 -51 -25 -2 0 -5 10 -7 23 -3 20 -7 22
-55 19 l-53 -4 0 49 c-1 64 -15 132 -30 146 -10 10 -12 7 -7 -11 3 -12 1 -20
-4 -16 -5 3 -9 13 -10 22 -1 9 -5 1 -10 -18 -5 -19 -8 -71 -7 -115 l3 -79 -48
-14 c-27 -7 -54 -11 -61 -9 -7 3 -28 45 -46 94 -18 48 -43 109 -56 135 -13 26
-24 58 -24 70 0 13 -7 34 -16 46 -12 17 -21 21 -42 16 -35 -9 -41 -20 -35 -58
3 -17 -5 -71 -16 -119 -12 -49 -21 -99 -21 -111 0 -29 -10 -39 -26 -25 -14 11
-52 4 -40 -8 3 -3 -3 -13 -15 -21 -18 -12 -22 -12 -33 3 -14 20 -16 18 -45
-40 -19 -37 -115 -125 -137 -125 -8 0 -13 -4 -9 -9 3 -5 0 -13 -6 -17 -8 -4
-9 -3 -5 5 6 9 0 10 -19 5 -25 -6 -26 -5 -16 15 7 12 16 19 21 16 5 -3 11 -1
15 5 4 6 11 8 16 5 5 -3 6 1 3 10 -4 9 1 24 9 33 11 12 13 22 7 32 -6 9 -5 17
3 22 8 5 6 12 -6 26 -26 29 -23 92 6 152 10 18 17 39 17 45 0 19 51 66 89 82
27 12 35 12 42 2 5 -9 16 3 32 38 29 63 99 158 128 173 12 7 18 18 15 26 -3 9
1 14 12 14 10 0 37 18 60 40 22 22 46 40 52 40 10 0 50 36 50 46 0 3 11 20 25
38 31 41 32 56 2 56 -34 0 -57 21 -65 60 -11 53 -3 91 19 97 13 4 18 11 14 22
-3 8 -3 12 1 8 7 -7 39 30 39 45 0 4 9 18 20 30 11 13 22 34 25 48 5 23 11 26
70 31 36 4 117 5 180 3 63 -2 173 -4 244 -4z m776 -6 c0 -8 -9 -15 -20 -15
-20 -1 -38 -5 -42 -8 -2 -1 -25 -4 -52 -6 -62 -6 -120 -26 -103 -37 6 -4 -5
-5 -25 -1 -34 5 -43 1 -90 -39 -60 -50 -104 -57 -151 -22 -32 23 -33 35 -7 59
10 9 19 20 18 24 -3 28 5 50 20 54 9 2 115 4 235 4 180 1 217 -1 217 -13z
m234 7 c4 -5 -22 -11 -56 -13 -83 -5 -120 5 -48 13 90 9 99 9 104 0z m561 -6
c6 -2 -26 -3 -70 -3 -50 0 -70 3 -55 7 23 7 101 4 125 -4z m1392 -8 c17 -17
18 -67 21 -852 2 -820 2 -835 -17 -835 -55 0 -61 -21 -35 -109 12 -40 13 -56
4 -65 -8 -8 -14 -7 -23 4 -7 8 -38 35 -71 59 -32 24 -66 53 -76 65 -48 55 -56
63 -72 69 -10 3 -20 1 -24 -5 -5 -7 -10 -3 -16 11 -5 16 -13 21 -24 17 -9 -4
-22 -2 -29 4 -9 7 -16 6 -25 -5 -7 -9 -29 -15 -55 -15 -37 0 -48 -6 -91 -48
-27 -26 -62 -58 -79 -69 l-30 -21 25 -28 c14 -14 49 -42 78 -61 28 -18 52 -35
52 -37 0 -9 -62 -225 -70 -243 -6 -14 -6 -24 0 -28 17 -10 11 -51 -10 -70 -18
-16 -22 -16 -53 -2 -18 9 -49 30 -67 46 -91 79 -9 -34 133 -184 79 -84 96 -98
109 -88 18 16 39 1 56 -40 13 -31 7 -30 -33 2 -14 11 -13 7 4 -12 14 -15 22
-29 19 -33 -6 -5 -115 20 -160 37 -15 6 -30 19 -33 28 -6 19 -101 120 -157
166 -20 17 -45 30 -56 31 -11 1 -24 4 -30 8 -6 3 -13 2 -17 -4 -3 -5 -11 -10
-16 -10 -6 0 -7 4 -4 10 4 6 -3 9 -16 7 -12 -1 -26 6 -33 18 -13 22 -24 34
-49 54 -32 25 30 -80 69 -117 19 -18 34 -36 34 -42 0 -5 38 -47 85 -94 103
-105 115 -123 83 -135 -19 -7 -30 1 -77 52 -31 33 -78 92 -105 131 -27 39 -63
91 -80 116 -18 25 -41 63 -51 85 -11 22 -26 44 -33 48 -7 5 -23 23 -35 41 -12
19 -41 58 -65 87 -69 88 -91 120 -110 163 -12 29 -6 47 22 68 6 4 5 22 -2 46
-13 41 -16 92 -6 92 3 0 25 -13 48 -30 41 -27 45 -28 59 -12 10 11 12 24 7 37
-13 32 -14 31 60 111 39 41 70 82 70 89 0 8 6 12 14 9 10 -4 12 2 8 23 -8 44
-37 88 -56 85 -9 -2 -19 4 -22 13 -3 8 -15 15 -27 15 -11 0 -29 8 -40 17 -18
17 -19 17 -28 0 -13 -23 -18 -22 -59 13 -32 27 -35 28 -38 11 -3 -16 -14 -20
-70 -24 -135 -9 -243 -8 -277 3 -31 10 -37 17 -50 68 -46 168 -70 232 -85 230
-11 -2 -17 -22 -22 -68 -3 -36 -16 -105 -27 -155 -19 -80 -25 -92 -52 -107
-17 -10 -34 -18 -38 -18 -4 0 -13 24 -20 53 -16 64 -42 119 -59 125 -9 3 -11
-6 -6 -37 5 -33 2 -47 -22 -85 -24 -38 -31 -43 -47 -34 -24 12 -30 6 -72 -69
-30 -55 -34 -58 -66 -55 -19 2 -56 -6 -83 -17 -66 -29 -94 -27 -102 4 -3 14
-4 35 -1 48 5 20 -18 105 -36 134 -25 40 -80 -49 -95 -157 -4 -25 -11 -44 -15
-42 -4 2 -20 -2 -36 -9 -24 -11 -27 -15 -15 -27 8 -7 12 -18 9 -23 -7 -10 28
-12 168 -11 55 1 120 -3 145 -9 26 -6 81 -13 123 -14 42 -2 103 -11 136 -20
55 -16 60 -19 59 -45 -1 -17 -5 -26 -13 -23 -26 10 -7 -29 44 -90 25 -31 31
-47 31 -88 1 -28 -3 -59 -7 -71 -6 -18 -10 -16 -34 20 -24 37 -61 61 -73 49
-3 -3 -33 8 -68 23 -34 16 -80 31 -101 35 -22 4 -49 9 -60 12 -17 5 -16 3 5
-16 l25 -22 -25 7 c-18 5 -8 -9 42 -55 63 -58 148 -181 207 -298 l21 -43 -24
-6 c-48 -12 -61 3 -136 147 -41 79 -82 145 -94 151 -11 6 -47 37 -79 69 -73
74 -167 121 -309 155 -60 15 -108 30 -108 34 0 15 104 32 230 39 124 6 125 6
75 18 -29 7 -99 11 -165 9 -63 -2 -121 -1 -127 2 -24 8 -13 21 22 28 20 3 34
9 31 11 -3 3 2 12 10 21 14 14 13 16 -15 28 -28 12 -31 17 -31 56 0 40 -3 45
-32 56 -26 10 -35 9 -48 -3 -9 -8 -25 -12 -38 -8 -16 4 -36 -4 -67 -26 -41
-29 -72 -41 -61 -23 3 5 -3 15 -13 24 -10 8 -21 34 -25 57 -7 48 19 111 107
258 27 45 46 87 42 92 -3 6 -1 11 5 11 6 0 19 7 27 16 14 13 14 17 2 25 -11 7
-11 9 -1 9 7 0 10 5 7 10 -3 6 3 10 14 10 12 0 20 4 19 9 -3 11 70 81 83 81 5
0 9 4 9 9 0 5 9 13 21 16 15 5 18 10 10 18 -6 6 -11 17 -11 25 0 12 3 12 15 2
9 -8 15 -8 15 -2 0 6 -7 17 -15 26 -24 24 -19 37 11 26 14 -6 31 -10 39 -10
18 0 28 32 13 42 -10 6 -10 8 -1 8 7 0 10 7 6 16 -3 9 0 20 8 25 19 12 32 11
24 -1 -4 -6 5 -10 19 -10 14 0 26 -5 26 -12 0 -6 6 -3 14 7 7 10 11 27 8 37
-7 28 -20 21 -16 -9 2 -16 1 -22 -2 -15 -3 6 -11 12 -17 12 -7 0 -18 9 -25 21
-12 18 -11 21 7 26 12 3 21 9 21 14 0 17 60 39 87 33 16 -4 25 -3 20 1 -11 13
64 45 90 39 12 -3 29 -2 38 4 13 7 6 11 -33 16 -52 7 -74 22 -52 36 7 4 31 5
54 2 36 -5 40 -3 28 10 -11 14 -6 17 37 28 62 15 84 4 39 -18 -33 -17 -40 -33
-17 -41 7 -2 9 1 4 9 -6 10 -3 12 10 7 12 -5 26 1 43 18 13 14 20 25 13 25 -6
0 -11 9 -11 21 0 18 4 20 25 15 24 -6 105 27 113 47 2 4 12 7 22 7 10 0 25 6
32 13 17 17 124 31 133 17 8 -14 55 -13 150 4 44 7 122 19 173 27 95 13 120
31 62 44 -20 4 -30 13 -30 25 0 11 -8 24 -17 29 -47 28 -54 38 -43 65 5 14 14
26 20 26 6 0 26 11 44 25 18 14 37 25 42 25 5 0 20 9 34 20 23 18 24 20 5 21
-11 2 7 5 40 9 33 4 329 6 657 6 559 -1 598 -2 615 -19z m-2680 7 c-3 -3 -12
-4 -19 -1 -8 3 -5 6 6 6 11 1 17 -2 13 -5z m796 -1 c-7 -2 -21 -2 -30 0 -10 3
-4 5 12 5 17 0 24 -2 18 -5z m-3835 -27 c2 -9 -10 -30 -26 -46 -30 -28 -57
-89 -54 -123 0 -11 -13 -23 -39 -35 -21 -9 -39 -21 -39 -25 0 -9 -39 -43 -52
-46 -4 -1 -19 -8 -33 -15 -25 -13 -65 -11 -65 3 0 4 7 28 15 53 13 36 35 62
113 132 138 123 173 142 180 102z m1188 -37 c4 -6 8 -31 10 -55 2 -34 -1 -44
-12 -44 -20 0 -45 -25 -36 -36 4 -5 -2 -2 -12 6 -11 8 -17 10 -13 4 9 -16 -37
-64 -61 -64 -18 0 -19 4 -11 37 9 43 8 46 -23 48 -18 1 -24 10 -30 43 -4 23
-10 46 -13 51 -9 15 15 19 107 20 54 1 89 -3 94 -10z m-149 -151 c2 -18 0 -20
-7 -8 -12 18 -13 30 -2 30 4 0 9 -10 9 -22z m63 -125 c9 -34 8 -40 -11 -55
-12 -10 -26 -18 -33 -18 -7 0 -6 3 2 8 7 5 14 30 15 55 2 57 12 60 27 10z
m-2941 -14 c-19 -11 -24 -3 -8 14 8 9 16 11 18 5 2 -6 -3 -14 -10 -19z m3055
-103 c-4 -47 -9 -86 -11 -86 -2 0 -37 16 -78 35 -92 44 -97 63 -27 98 26 14
46 30 44 36 -1 7 2 10 7 6 6 -3 18 3 28 14 16 20 17 20 30 1 10 -14 12 -41 7
-104z m883 92 c-3 -8 -6 -5 -6 6 -1 11 2 17 5 13 3 -3 4 -12 1 -19z m-3974
-125 c-7 -36 -17 -69 -23 -73 -7 -4 -11 -9 -9 -11 5 -9 -13 -49 -23 -49 -17 0
-48 31 -48 47 0 22 47 97 70 111 14 8 20 23 21 50 0 35 1 35 12 14 8 -18 8
-41 0 -89z m5261 -47 c-3 -9 -10 -16 -15 -16 -5 0 -4 9 3 20 14 22 21 20 12
-4z m-1455 -596 c16 -13 125 -325 132 -375 0 -5 7 -25 15 -44 24 -57 67 -242
70 -299 2 -51 1 -54 -27 -64 -21 -7 -29 -17 -29 -33 0 -19 -12 -30 -59 -53
-118 -59 -379 -228 -436 -283 -17 -16 -35 -29 -40 -29 -4 0 -24 -17 -44 -37
-20 -21 -71 -69 -114 -108 -43 -38 -96 -86 -117 -106 l-39 -36 -53 35 c-29 19
-90 69 -134 111 -45 42 -88 81 -95 86 -8 6 -47 37 -88 70 -40 33 -81 65 -89
70 -9 6 -21 15 -27 20 -7 6 -24 19 -39 30 -141 102 -159 118 -142 127 10 6 18
8 19 6 24 -45 57 -62 80 -39 6 6 18 11 26 11 8 0 30 12 50 28 43 33 53 39 122
76 30 15 72 43 94 60 22 18 55 41 73 51 17 11 32 23 32 27 0 4 5 8 11 8 5 0
42 28 82 61 96 81 99 84 200 162 48 38 87 72 87 77 0 5 8 11 18 14 9 3 28 16
42 29 14 13 50 45 80 71 30 27 116 107 189 179 88 85 136 125 139 116 3 -8 8
-16 11 -19z m69 -57 c17 -43 40 -107 52 -143 12 -36 25 -74 30 -85 28 -63 150
-493 150 -527 0 -18 -23 -15 -52 6 -14 10 -16 19 -9 44 7 21 5 49 -6 89 -8 32
-16 65 -18 73 -8 39 -37 157 -42 170 -3 8 -8 23 -10 33 -10 54 -100 315 -114
333 -5 6 -10 20 -12 32 -2 12 -6 25 -10 28 -4 4 -7 14 -7 21 0 29 18 1 48 -74z
m290 -262 c20 -24 50 -57 65 -72 15 -15 27 -36 25 -45 -2 -9 3 -19 11 -22 8
-3 11 0 7 7 -4 6 -3 11 3 11 5 0 8 -13 6 -30 -2 -16 1 -33 7 -36 5 -3 7 -18 4
-33 -5 -19 -4 -22 4 -11 7 11 10 5 10 -26 0 -27 6 -47 19 -58 19 -17 21 -31 8
-52 -4 -7 12 -20 43 -35 28 -13 50 -26 50 -29 0 -4 -12 -11 -27 -17 l-28 -11
31 -1 c22 -1 34 -8 44 -26 7 -14 21 -25 31 -25 20 0 42 -33 31 -45 -4 -4 3 -6
15 -3 15 4 23 0 26 -14 4 -15 11 -18 26 -13 16 5 21 2 21 -12 1 -20 30 -64 30
-45 0 7 7 12 15 12 9 0 12 -6 9 -15 -4 -10 0 -15 11 -15 9 0 13 5 10 10 -3 6
-1 10 5 10 6 0 13 -12 16 -27 4 -21 19 -35 60 -55 29 -16 58 -28 63 -28 5 0
41 -18 80 -41 48 -27 71 -47 71 -59 0 -19 8 -23 70 -36 19 -3 37 -10 40 -14 9
-12 123 -25 182 -20 48 4 199 -8 286 -22 13 -3 36 -16 50 -29 15 -14 52 -44
82 -66 30 -22 109 -96 175 -164 66 -67 188 -190 270 -273 83 -83 171 -175 197
-204 25 -28 52 -52 59 -52 7 0 20 -6 28 -13 22 -19 142 -39 319 -54 69 -5 97
-17 50 -20 -13 -1 -48 -6 -78 -12 -123 -22 -199 -32 -272 -34 -57 -2 -82 -7
-96 -21 -19 -17 -20 -16 -32 18 -6 19 -31 57 -56 85 -24 27 -44 51 -44 54 0 3
-12 18 -27 34 -16 16 -42 44 -59 63 -17 19 -63 64 -103 100 -40 35 -107 99
-149 142 -42 43 -81 78 -85 78 -4 0 -18 11 -30 24 -35 38 -185 111 -255 125
-82 16 -308 14 -397 -3 -55 -11 -225 -55 -235 -61 -8 -5 -166 143 -404 381
-89 88 -195 192 -237 231 -70 64 -77 75 -83 119 -4 27 -13 69 -21 94 -55 185
-70 234 -91 300 -13 41 -29 91 -36 110 -6 19 -15 49 -19 65 -4 17 -21 68 -38
115 -17 47 -31 87 -31 89 0 7 225 -226 268 -278z m232 16 c0 -2 -10 -12 -21
-23 -22 -19 -22 -19 -10 4 10 18 31 31 31 19z m2207 -29 c-3 -8 -6 -5 -6 6 -1
11 2 17 5 13 3 -3 4 -12 1 -19z m-1634 -289 c113 -23 137 -33 137 -54 0 -9 6
-12 15 -9 8 4 15 2 15 -4 0 -6 -6 -13 -12 -15 -8 -3 -6 -6 4 -6 10 -1 15 -7
12 -14 -3 -8 0 -26 5 -40 l11 -27 -33 22 c-17 13 -34 25 -37 28 -11 11 -159
81 -217 102 -62 22 -73 38 -27 38 14 0 71 -9 127 -21z m617 -195 c60 -65 134
-177 128 -195 -2 -6 -28 25 -58 68 -30 42 -89 113 -132 156 -72 71 -75 77 -37
55 23 -12 67 -51 99 -84z m-275 4 c65 -71 105 -133 105 -162 0 -8 5 -16 12
-18 6 -2 8 -10 4 -17 -5 -8 -18 4 -38 36 -17 26 -48 65 -69 85 -22 21 -36 38
-32 38 3 0 -2 10 -13 22 -12 13 -13 18 -4 13 13 -8 13 -7 1 11 -8 10 -29 34
-45 53 -25 26 -26 31 -9 22 11 -6 51 -43 88 -83z m-2739 -3 c28 -15 28 -15
-36 -15 -61 1 -64 1 -40 15 32 18 41 18 76 0z m3721 -17 c-3 -8 -6 -5 -6 6 -1
11 2 17 5 13 3 -3 4 -12 1 -19z m-2255 -84 c20 -38 49 -100 64 -139 15 -38 32
-83 39 -100 7 -16 22 -61 35 -100 28 -86 48 -145 88 -254 27 -73 29 -87 17
-105 -16 -26 -31 -89 -15 -66 15 23 13 -1 -9 -78 -24 -86 -100 -277 -201 -507
-10 -22 -24 -55 -31 -72 -8 -18 -17 -33 -21 -33 -14 0 -97 65 -102 80 -3 8
-23 26 -43 40 -38 25 -261 236 -317 300 -74 83 -159 171 -268 278 -65 63 -115
118 -113 122 9 15 650 2 794 -16 150 -18 278 -38 287 -46 8 -5 14 -3 18 7 7
18 -25 33 -87 40 -101 11 -287 27 -347 31 -76 4 -480 14 -590 15 -64 0 -72 1
-53 12 12 7 86 75 165 152 79 77 155 149 169 160 14 11 52 40 84 65 96 75 167
127 235 174 36 25 83 61 105 80 22 20 45 34 50 33 6 -2 27 -34 47 -73z m198
-113 c80 -81 208 -214 285 -295 77 -81 161 -161 187 -178 42 -27 79 -80 65
-94 -3 -3 -58 0 -123 7 -66 6 -147 13 -181 15 -34 2 -75 10 -92 18 -16 9 -36
13 -44 10 -10 -4 -17 8 -25 43 -14 64 -51 168 -101 288 -5 11 -41 86 -81 167
-67 139 -76 168 -47 168 7 0 78 -67 157 -149z m2142 107 c21 -23 41 -50 44
-60 3 -10 12 -18 20 -18 8 0 14 -6 14 -12 0 -7 14 -31 30 -52 49 -65 37 -77
-22 -21 -20 19 -40 35 -44 35 -15 0 -44 34 -44 52 0 10 -6 17 -12 16 -8 -2
-14 9 -16 26 -2 16 -11 40 -19 53 -27 40 7 27 49 -19z m1214 34 c8 -5 12 -78
14 -232 4 -297 8 -270 -39 -270 -34 0 -40 3 -46 28 l-8 27 -8 -29 c-11 -40 1
-92 25 -108 7 -5 6 -8 -2 -8 -20 0 -73 -40 -67 -50 3 -4 -6 -11 -19 -14 -13
-3 -32 -9 -42 -13 -12 -4 -15 -3 -10 5 4 7 2 12 -3 12 -6 0 -11 -4 -11 -10 0
-5 -9 -10 -20 -10 -11 0 -20 -6 -21 -12 0 -10 -2 -10 -5 -1 -7 15 25 63 41 63
18 0 53 96 59 165 3 33 10 89 17 125 6 36 13 106 14 156 1 50 6 101 10 113 3
12 28 32 53 46 53 27 53 27 68 17z m-5479 -49 c16 -16 74 -61 131 -98 114 -76
130 -91 86 -81 -16 3 -56 11 -89 17 -50 8 -134 43 -249 101 -10 6 -42 18 -70
28 -102 36 -141 52 -148 58 -4 4 65 7 152 6 l160 -1 27 -30z m-578 -5 c20 -7
45 -21 55 -30 11 -10 24 -18 28 -18 5 0 59 -24 121 -54 62 -29 122 -57 135
-61 34 -10 26 -25 -12 -25 -19 0 -38 -4 -41 -10 -3 -5 -21 -10 -39 -10 -38 0
-229 -66 -391 -135 -60 -26 -123 -51 -140 -57 -16 -5 -45 -17 -64 -25 -18 -8
-45 -19 -60 -23 -81 -23 -636 -244 -754 -300 -126 -59 -181 -79 -512 -191
-152 -52 -277 -62 -445 -38 -41 6 -84 12 -95 14 -17 2 -76 13 -160 29 -11 2
-63 9 -115 16 -52 7 -124 18 -160 25 l-65 13 85 1 c47 1 101 4 120 6 19 3 102
9 184 15 82 5 170 12 195 15 25 3 65 7 88 9 29 3 57 16 95 45 68 53 64 50 128
92 262 173 406 257 625 363 66 32 133 64 148 72 16 8 35 14 42 14 7 0 55 16
107 36 51 20 116 42 143 49 80 21 198 56 220 66 11 4 43 13 70 19 28 6 77 18
110 26 33 8 110 24 170 35 61 11 112 23 114 25 8 7 34 4 70 -8z m5856 -80 c-3
-7 -9 -51 -15 -98 -17 -150 -39 -284 -49 -310 -5 -14 -10 -20 -11 -15 0 6 -3
5 -8 -1 -5 -8 -15 -8 -31 -3 -17 7 -21 12 -13 22 6 7 15 75 21 150 l9 137 47
65 c45 63 59 78 50 53z m-1855 -209 c10 -6 -9 -7 -51 -3 -109 10 -144 23 -49
17 47 -3 92 -9 100 -14z m-3153 -64 c32 -9 81 -22 108 -30 28 -7 84 -23 125
-34 151 -40 256 -78 375 -136 50 -23 100 -46 111 -49 12 -4 84 -72 160 -152
77 -80 193 -202 259 -272 66 -69 165 -171 220 -227 55 -56 133 -137 174 -179
77 -81 110 -98 139 -74 9 8 37 23 61 32 77 30 152 87 264 199 59 60 107 103
107 97 0 -6 -18 -30 -41 -53 -55 -57 -61 -64 -103 -126 -28 -42 -34 -56 -24
-63 9 -6 7 -8 -6 -6 -14 2 -22 -5 -28 -29 -5 -18 -13 -33 -18 -33 -6 0 -10 -5
-10 -11 0 -5 6 -7 13 -3 9 6 9 4 -1 -8 -10 -13 -10 -17 0 -21 7 -3 0 -6 -17
-6 -22 -1 -26 -4 -16 -10 12 -8 0 -24 -56 -78 -38 -37 -84 -78 -102 -91 -17
-13 -31 -30 -31 -38 0 -8 -2 -14 -4 -14 -2 0 -11 -2 -18 -5 -16 -6 -14 -8
-201 169 -71 67 -136 125 -145 130 -9 5 -44 30 -77 56 -63 49 -192 140 -199
140 -2 0 -30 18 -62 40 -93 64 -217 145 -223 145 -3 0 -67 32 -141 72 -144 76
-286 128 -440 163 -52 12 -131 30 -175 40 -92 21 -181 35 -210 32 -11 -1 -38
3 -61 8 -49 11 -293 14 -429 5 -55 -4 -127 -15 -160 -25 -70 -22 -166 -42
-172 -37 -2 2 2 8 9 14 12 9 169 82 248 116 33 14 33 16 10 18 -14 1 -60 1
-102 -1 -64 -1 -78 1 -78 14 0 22 148 83 245 100 103 18 100 32 -8 41 -46 3
-89 10 -97 15 -25 16 -2 35 66 54 38 10 101 29 139 41 95 30 201 56 250 61 22
2 65 8 95 14 111 20 191 19 277 -5z m183 -10 c80 -16 118 -26 165 -45 11 -4
58 -20 105 -36 114 -37 158 -56 143 -61 -7 -3 -52 10 -100 27 -49 18 -144 47
-213 66 -229 62 -250 69 -250 76 0 3 15 3 33 -2 17 -4 70 -15 117 -25z m494
-165 c14 -5 26 -14 26 -19 0 -5 -13 -4 -30 2 -16 6 -30 15 -30 19 0 10 3 10
34 -2z m2929 -122 c83 -80 61 -76 -28 7 -33 30 -63 55 -66 55 -4 0 -9 7 -13
15 -10 28 31 -2 107 -77z m1301 57 c-4 -8 -1 -15 5 -15 22 0 11 -37 -14 -48
-14 -7 -28 -12 -30 -12 -12 0 -3 48 13 68 20 25 34 29 26 7z m-2430 -64 c3 -5
-1 -12 -10 -15 -27 -11 -37 -7 -24 9 14 17 26 19 34 6z m-207 -27 c28 -8 61
-14 74 -14 21 0 21 -1 6 -17 -21 -23 -90 -105 -99 -118 -4 -5 -27 -33 -50 -60
-24 -28 -61 -73 -83 -100 -22 -27 -56 -66 -75 -88 -18 -21 -45 -52 -60 -69
-74 -87 -107 -117 -279 -252 -7 -6 11 39 42 99 30 61 58 121 62 135 12 41 45
89 123 180 86 100 126 158 176 257 l37 72 37 -6 c20 -2 60 -11 89 -19z m288
-14 c-12 -5 -14 -9 -6 -9 8 -1 12 -4 8 -7 -9 -9 -28 6 -22 17 4 5 14 9 23 8
14 0 13 -2 -3 -9z m-40 -10 c3 -6 -1 -7 -9 -4 -11 4 -16 0 -16 -15 0 -12 -5
-21 -11 -21 -5 0 -7 -4 -4 -10 3 -5 1 -10 -5 -10 -7 0 -10 -6 -7 -14 3 -8 -1
-17 -9 -20 -8 -3 -14 -1 -14 5 0 6 -4 7 -10 4 -5 -3 -10 -1 -10 5 0 6 -4 9 -9
5 -5 -3 -12 -1 -16 5 -3 5 -1 10 4 10 6 0 10 3 10 8 -5 27 2 44 17 38 10 -4
13 -2 8 6 -5 8 -2 9 9 5 10 -3 17 -2 17 3 0 13 47 13 55 0z m-108 -97 c4 -9 1
-19 -5 -21 -7 -2 -10 -8 -6 -13 3 -5 0 -9 -5 -9 -6 0 -11 6 -11 13 0 6 -5 4
-11 -6 -8 -13 -7 -22 3 -34 8 -10 8 -14 1 -10 -6 4 -13 2 -16 -5 -2 -7 -3 -5
-1 5 2 14 -2 17 -14 12 -15 -5 -15 -4 0 12 9 10 21 30 27 46 12 31 28 35 38
10z m-5758 -153 c13 0 51 -7 85 -16 33 -9 86 -20 116 -25 30 -4 80 -13 110
-19 81 -16 117 -21 200 -26 41 -3 85 -10 97 -16 16 -8 26 -8 36 0 7 6 43 14
79 17 60 6 67 4 73 -13 3 -11 13 -23 23 -27 9 -4 58 -22 108 -40 50 -18 100
-38 110 -44 11 -6 61 -23 113 -39 l94 -29 -99 -49 c-136 -67 -410 -231 -452
-271 -18 -17 -19 -17 -62 17 -21 17 -41 30 -44 30 -3 0 -29 16 -56 35 -27 19
-52 35 -55 35 -5 0 -261 183 -355 254 -243 183 -370 285 -370 298 0 2 51 -13
113 -34 61 -20 123 -37 136 -38z m6616 50 c73 -8 99 -16 140 -42 27 -17 64
-39 81 -48 16 -9 46 -27 64 -40 45 -32 136 -87 175 -106 48 -23 101 -75 130
-129 44 -81 41 -80 137 -60 46 9 92 18 103 20 28 4 201 42 328 72 60 14 115
32 123 40 12 13 14 12 14 -1 0 -15 -77 -112 -124 -155 -15 -15 -24 -31 -21
-41 6 -19 -26 -45 -102 -83 -28 -15 -57 -32 -64 -39 -65 -64 -235 -155 -339
-184 -75 -20 -87 -22 -105 -9 -40 28 -55 42 -55 51 0 18 -71 86 -275 265 -27
24 -59 53 -71 64 -36 35 -138 111 -173 131 -19 10 -57 32 -85 47 -80 45 -164
69 -256 76 l-85 6 37 18 c20 10 40 22 44 28 3 6 25 19 48 30 22 10 72 39 109
63 54 35 76 44 100 40 18 -2 72 -8 122 -14z m-980 -71 c-4 -5 -12 -9 -18 -8
-9 0 -8 2 1 6 6 2 9 10 6 15 -4 7 -2 8 5 4 6 -4 9 -12 6 -17z m-99 -47 c-17
-16 -18 -16 -5 5 7 12 15 20 18 17 3 -2 -3 -12 -13 -22z m-26 -36 c0 -3 -4 -8
-10 -11 -5 -3 -10 -1 -10 4 0 6 5 11 10 11 6 0 10 -2 10 -4z m18 -26 c-7 -11
-17 -20 -22 -20 -5 0 -1 9 9 20 10 11 20 20 22 20 2 0 -2 -9 -9 -20z m3040
-53 c3 -26 1 -27 -40 -27 -24 0 -60 3 -80 6 l-38 7 28 27 c45 45 63 51 97 31
19 -11 31 -26 33 -44z m-8633 -6 c-3 -6 -11 -11 -17 -11 -6 0 -6 6 2 15 14 17
26 13 15 -4z m3025 -51 c47 -17 96 -39 110 -48 14 -9 36 -22 50 -28 35 -16
157 -109 227 -174 117 -108 180 -232 190 -376 6 -86 -9 -191 -35 -254 -16 -38
-72 -123 -85 -129 -5 -2 -23 -16 -41 -31 -62 -55 -202 -104 -326 -115 -36 -4
-70 -8 -77 -10 -6 -2 -53 3 -105 11 -51 9 -100 16 -108 16 -8 0 -19 4 -25 8
-5 4 -23 10 -38 14 -48 11 -209 95 -267 138 -83 62 -142 131 -208 242 -51 85
-62 113 -70 172 -16 111 1 201 55 304 36 67 145 191 198 225 104 67 143 75
335 70 122 -3 143 -6 220 -35z m2167 13 c-3 -5 -27 -55 -54 -113 -28 -58 -58
-112 -69 -120 -16 -13 -16 -12 2 15 11 17 37 68 58 115 21 47 43 91 48 98 11
13 22 17 15 5z m3253 -34 c0 -5 4 -8 9 -4 6 3 9 -3 8 -14 -2 -25 -42 -34 -59
-13 -11 13 -11 14 0 8 9 -5 15 -1 19 13 5 22 23 29 23 10z m-747 -16 c-7 -2
-19 -2 -25 0 -7 3 -2 5 12 5 14 0 19 -2 13 -5z m-56 -9 c-3 -3 -12 -4 -19 -1
-8 3 -5 6 6 6 11 1 17 -2 13 -5z m273 -89 c-7 -8 -17 -15 -22 -15 -6 0 -5 7 2
15 7 8 17 15 22 15 6 0 5 -7 -2 -15z m327 -1 c-3 -3 -12 -4 -19 -1 -8 3 -5 6
6 6 11 1 17 -2 13 -5z m61 -10 c17 -5 20 -10 12 -19 -13 -15 -77 -12 -93 4 -7
7 -3 8 12 4 12 -3 21 -1 21 6 0 12 14 14 48 5z m-94 -23 c4 -5 -3 -7 -14 -4
-23 6 -26 13 -6 13 8 0 17 -4 20 -9z m-331 -45 c-15 -19 -32 -35 -36 -35 -5
-1 -15 -8 -23 -16 -9 -8 -21 -15 -27 -15 -13 0 93 99 106 100 5 0 -4 -15 -20
-34z m-6783 0 c0 -2 -24 -16 -52 -31 -29 -15 -48 -23 -43 -17 9 9 85 52 92 52
2 0 3 -2 3 -4z m6838 -9 c-13 -15 -38 -18 -38 -6 0 7 18 14 43 18 4 0 2 -5 -5
-12z m-41 -33 c-3 -3 -12 -4 -19 -1 -8 3 -5 6 6 6 11 1 17 -2 13 -5z m-7012
-49 c-43 -37 -41 -45 3 -19 25 15 26 15 7 -1 -29 -24 -59 -40 -51 -26 13 20
-8 11 -36 -16 -20 -19 -31 -24 -39 -16 -8 8 11 25 67 62 43 28 81 51 84 51 3
0 -13 -16 -35 -35z m4460 -15 c-3 -5 -12 -10 -18 -10 -7 0 -6 4 3 10 19 12 23
12 15 0z m832 -34 c45 -8 95 -22 112 -30 16 -9 37 -16 45 -16 24 0 222 -148
259 -193 34 -43 88 -122 106 -156 29 -54 62 -215 62 -308 1 -199 -71 -317
-223 -364 -62 -19 -220 -22 -289 -4 -201 51 -308 148 -480 434 -47 78 -64 252
-35 358 28 104 98 213 156 244 27 14 153 47 185 48 11 1 57 -6 102 -13z m1513
-11 c0 -8 -7 -15 -16 -15 -14 0 -14 3 -4 15 7 8 14 15 16 15 2 0 4 -7 4 -15z
m-61 -69 c-9 -8 -10 -8 -4 3 5 9 4 12 -3 7 -7 -4 -12 -14 -12 -22 0 -8 -4 -13
-9 -10 -5 3 -12 -1 -15 -10 -3 -8 -2 -12 4 -9 16 10 12 0 -10 -25 -11 -12 -17
-27 -13 -33 3 -6 1 -7 -6 -3 -6 4 -9 11 -6 16 3 5 1 11 -5 15 -5 3 -10 0 -10
-9 0 -8 -3 -16 -7 -19 -5 -2 -3 -3 3 -1 6 1 16 -7 23 -18 7 -11 8 -17 2 -13
-7 3 -11 -2 -11 -14 0 -10 -10 -30 -22 -44 -20 -23 -23 -24 -36 -8 -7 9 -11
10 -7 4 3 -7 2 -13 -4 -13 -5 0 -8 -11 -5 -25 3 -16 0 -24 -7 -23 -6 2 -14 -3
-17 -11 -3 -10 0 -12 11 -8 9 3 19 2 21 -2 3 -5 -7 -8 -22 -7 -19 1 -28 -5
-30 -17 -2 -11 -11 -28 -20 -38 -10 -11 -16 -22 -14 -25 2 -3 -5 -12 -15 -21
-10 -8 -11 -11 -3 -7 13 7 13 5 1 -9 -7 -9 -17 -14 -22 -11 -5 3 -12 -2 -15
-10 -11 -30 -22 -6 -14 31 5 21 11 61 14 89 3 28 12 67 20 86 9 20 12 38 9 42
-4 3 1 6 10 6 10 0 17 4 17 8 0 5 28 30 63 55 34 26 87 69 117 96 40 37 56 46
58 34 2 -8 -2 -20 -9 -27z m47 -15 c-1 -16 -4 -32 -7 -35 -4 -4 -4 49 0 62 4
11 8 -3 7 -27z m-32 -16 c-7 -16 -24 -21 -24 -6 0 8 7 13 27 20 1 1 0 -6 -3
-14z m-337 -217 c-3 -7 -5 -2 -5 12 0 14 2 19 5 13 2 -7 2 -19 0 -25z m1071
11 c2 -5 7 -7 12 -4 10 6 45 -33 36 -42 -3 -4 -34 -9 -69 -11 -34 -2 -75 -9
-92 -17 -16 -7 -46 -16 -65 -20 -38 -7 -119 -36 -190 -68 -49 -23 -203 -48
-221 -37 -6 4 -26 4 -45 0 -33 -8 -34 -7 -34 26 0 22 6 36 18 42 24 13 186 49
257 57 32 4 104 20 160 37 55 16 120 36 145 43 45 13 82 10 88 -6z m-7578 -34
c14 -19 14 -19 -2 -6 -10 7 -18 18 -18 24 0 6 1 8 3 6 1 -2 9 -13 17 -24z
m7780 0 c24 -14 24 -14 -22 -15 -59 0 -64 19 -8 28 3 1 16 -5 30 -13z m-8470
-16 c0 -14 -16 -11 -29 5 -10 12 -8 13 8 9 12 -3 21 -9 21 -14z m7191 -36
c-10 -17 -10 -16 -11 3 0 23 13 41 18 25 2 -6 -1 -18 -7 -28z m-6741 -3 c0 -5
-8 -10 -17 -10 -15 0 -16 2 -3 10 19 12 20 12 20 0z m60 -5 c11 -13 9 -15 -11
-12 -12 2 -25 9 -27 15 -5 17 23 15 38 -3z m8030 -124 c0 -5 -13 -15 -30 -23
-16 -7 -30 -16 -30 -20 0 -5 -6 -8 -13 -8 -7 0 -22 -8 -33 -18 -10 -10 -26
-21 -35 -24 -9 -4 -47 -27 -84 -53 -37 -25 -73 -44 -79 -42 -10 3 34 34 221
152 72 46 83 50 83 36z m0 -261 l0 -240 -82 -79 c-83 -81 -89 -84 -143 -62
-47 19 -249 67 -365 87 -58 9 -111 20 -118 24 -9 4 23 35 93 88 58 45 109 82
114 82 5 0 14 7 21 14 11 14 254 179 275 187 20 8 160 103 163 111 2 4 10 8
18 8 8 0 14 5 14 10 0 6 2 10 5 10 3 0 5 -108 5 -240z m-901 203 l23 -6 -23
-13 c-31 -17 -59 -18 -59 -1 0 27 16 32 59 20z m-164 -60 c-4 -21 -10 -49 -15
-63 -8 -25 -40 -130 -81 -268 -21 -73 -22 -73 -74 -96 -28 -13 -83 -44 -122
-70 -39 -25 -73 -46 -77 -46 -4 0 -17 7 -30 15 l-23 15 39 128 c21 70 38 134
38 144 0 9 23 30 53 47 55 33 136 96 202 159 37 34 85 72 93 72 1 0 0 -17 -3
-37z m-6960 -53 c22 -10 102 -32 125 -35 41 -5 96 -18 105 -25 6 -4 62 -16
125 -25 63 -9 123 -21 133 -27 11 -5 28 -7 40 -4 11 3 33 -2 48 -10 15 -7 41
-14 58 -14 16 0 32 -4 35 -9 3 -5 30 -25 58 -44 29 -19 69 -49 88 -66 19 -17
56 -41 83 -53 26 -12 47 -28 47 -35 0 -13 -73 -205 -111 -290 l-18 -42 -116
69 c-63 39 -182 122 -263 185 -179 141 -166 130 -232 186 -51 42 -168 135
-284 223 l-49 37 54 -6 c30 -4 63 -10 74 -15z m3640 -386 c-14 -35 -9 -67 11
-64 5 0 10 -10 12 -22 2 -18 1 -20 -7 -8 -6 8 -11 11 -11 6 0 -4 -11 -1 -25 8
-30 20 -55 20 -125 1 -30 -9 -73 -19 -95 -24 -22 -5 -87 -20 -145 -35 -58 -15
-121 -31 -140 -36 -59 -15 -153 -40 -185 -50 -16 -5 -82 -22 -145 -39 -245
-62 -440 -126 -591 -193 -26 -11 -51 -18 -56 -15 -4 3 -40 8 -78 12 -39 3 -79
8 -91 10 -21 5 -218 34 -264 40 -22 3 -94 19 -244 57 -21 5 -36 11 -35 13 4 3
120 11 276 20 46 2 100 9 120 14 21 6 56 12 78 15 47 5 90 14 125 26 14 5 77
12 140 15 93 5 283 26 450 49 36 5 188 35 316 62 61 13 120 24 131 24 11 0 23
3 27 7 4 5 35 13 69 20 119 23 294 65 447 109 22 7 24 6 11 -9 -8 -11 -9 -17
-3 -17 6 0 16 9 22 20 18 33 21 22 5 -16z m4375 11 c-7 -9 -15 -13 -18 -10 -3
2 1 11 8 20 7 9 15 13 18 10 3 -2 -1 -11 -8 -20z m-4307 -39 c-3 -4 -9 -2 -14
5 -13 22 -11 31 5 17 8 -7 12 -17 9 -22z m-35 2 c-6 -17 -38 -23 -38 -8 0 6 5
8 10 5 6 -3 10 -1 10 4 0 6 5 11 11 11 6 0 9 -6 7 -12z m3567 -3 c39 -4 90
-11 115 -17 25 -5 68 -13 95 -18 85 -14 346 -93 435 -132 l44 -20 -49 -23
c-28 -13 -56 -24 -63 -24 -7 -1 -31 -10 -53 -22 -30 -15 -44 -17 -54 -9 -18
15 -133 59 -180 70 -22 4 -65 13 -95 20 -78 16 -153 13 -191 -8 -46 -26 -56
-44 -42 -84 6 -18 14 -49 17 -68 5 -28 -2 -19 -32 40 -51 100 -109 200 -131
225 -18 21 -51 71 -51 78 0 5 138 0 235 -8z m-3457 -56 c-7 -4 -6 -9 1 -13 13
-9 5 -26 -12 -26 -7 0 -6 4 3 10 12 8 12 10 -3 16 -9 3 -14 10 -11 15 3 6 0
17 -8 26 -9 13 -6 12 13 -2 15 -11 22 -23 17 -26z m-48 -25 c-6 -6 -8 -13 -5
-16 3 -2 -2 -5 -10 -5 -19 0 -19 13 0 21 9 3 12 12 9 23 -5 15 -4 15 4 3 7 -9
7 -19 2 -26z m97 -16 c0 -13 -1 -17 -4 -10 -4 10 -10 10 -29 -3 -13 -8 -24
-11 -24 -6 0 5 9 13 20 16 11 3 20 11 20 16 0 20 16 8 17 -13z m-233 -12 c17
-12 67 -42 111 -66 44 -24 114 -67 155 -95 41 -29 102 -67 135 -85 33 -18 72
-41 87 -51 14 -11 29 -19 32 -19 3 0 52 -31 108 -69 155 -104 360 -237 384
-249 18 -10 22 -23 27 -108 6 -94 21 -134 49 -134 20 0 228 190 258 235 9 14
45 57 81 96 35 40 71 82 79 95 8 13 51 71 95 129 56 74 84 103 95 99 8 -4 40
-15 70 -26 30 -11 87 -35 125 -53 198 -93 254 -116 521 -215 63 -24 114 -14
195 36 l35 22 16 -57 c12 -40 17 -100 18 -208 1 -163 3 -152 -64 -266 l-23
-38 -11 83 c-15 102 -15 225 -2 233 28 17 1 39 -117 96 -71 33 -141 63 -158
66 -16 3 -34 9 -40 13 -5 4 -23 10 -40 14 -16 4 -59 19 -95 33 -36 13 -90 34
-120 45 -30 11 -68 27 -84 36 -16 8 -42 15 -57 14 -15 0 -30 5 -32 12 -3 8
-22 16 -41 20 -22 4 -36 13 -36 21 0 45 -68 -13 -329 -278 -58 -60 -118 -115
-132 -123 -26 -13 -50 -35 -117 -108 -36 -38 -92 -82 -92 -70 0 3 -7 1 -15 -6
-11 -9 -26 0 -82 52 -38 35 -118 106 -178 158 -60 52 -119 104 -131 116 -43
41 -215 182 -252 206 -118 78 -232 148 -239 148 -3 0 -21 11 -39 25 -18 14
-62 40 -99 59 -36 19 -60 36 -53 38 8 3 4 10 -13 21 -27 18 -34 16 -269 -90
-43 -20 -75 -33 -180 -73 -216 -82 -293 -111 -340 -126 -30 -9 -59 -20 -65
-24 -9 -6 -160 -65 -300 -117 -86 -32 -105 -45 -105 -72 0 -14 -16 -53 -36
-86 -56 -92 -111 -214 -136 -302 l-23 -80 -95 140 c-51 76 -100 150 -107 164
-27 52 -104 152 -132 172 -34 25 -45 26 -38 7 4 -9 1 -13 -6 -11 -7 2 -52 11
-102 21 -127 23 -594 139 -717 177 -26 8 -49 13 -51 10 -3 -2 -29 7 -58 20
-55 25 -93 39 -118 43 -7 2 -18 7 -24 13 -15 15 78 55 126 54 34 0 42 4 68 39
16 22 34 55 40 73 l12 33 36 -19 c20 -10 41 -19 48 -19 7 0 13 -4 13 -9 0 -5
12 -14 28 -19 15 -6 55 -22 88 -36 78 -32 278 -79 502 -116 152 -26 200 -30
385 -30 161 -1 225 3 267 14 30 9 66 18 80 22 14 3 77 22 140 41 63 19 142 41
175 49 62 15 274 79 310 94 21 8 238 70 268 75 10 2 52 14 95 25 42 12 82 23
87 24 72 18 105 30 105 37 0 14 11 11 44 -15z m2930 -32 c9 -3 16 -10 16 -16
0 -17 -235 -258 -281 -287 -14 -9 -40 -33 -58 -53 -18 -21 -39 -38 -46 -38 -6
0 -22 -9 -35 -20 -16 -14 -32 -18 -58 -15 -19 2 -38 7 -41 11 -3 4 7 4 23 0
27 -7 28 -6 22 20 -7 28 -30 56 -40 49 -3 -3 -2 1 4 7 5 7 10 22 10 34 0 18 7
22 49 28 27 4 51 11 53 15 2 5 44 36 93 69 50 33 106 73 125 90 64 55 135 111
142 112 3 0 13 -3 22 -6z m-1276 -42 c20 -20 57 -38 159 -77 52 -21 70 -32 66
-43 -5 -12 -2 -12 18 -2 23 12 23 12 6 -6 -16 -17 -16 -19 4 -29 19 -11 19
-12 3 -26 -16 -13 -17 -12 -11 5 7 16 5 17 -9 5 -14 -11 -18 -11 -30 6 -8 10
-14 13 -14 7 0 -16 -31 -15 -54 3 -11 8 -28 15 -37 15 -10 0 -30 5 -46 12 -45
18 -53 17 -64 -4 -8 -15 -13 -17 -19 -9 -5 9 -44 -11 -131 -68 -68 -44 -131
-86 -140 -94 -9 -8 -38 -29 -65 -48 -68 -46 -152 -114 -197 -160 -21 -22 -43
-39 -47 -39 -9 0 -104 74 -150 118 -14 12 -42 33 -62 44 -21 12 -38 25 -38 30
0 4 -5 8 -11 8 -6 0 -21 9 -33 20 -11 10 -32 28 -46 39 -20 15 -22 22 -13 32
10 10 14 9 19 -4 3 -9 11 -17 18 -17 6 0 34 -15 62 -33 28 -19 72 -44 97 -56
46 -22 49 -22 85 -7 20 10 46 22 56 28 11 6 40 22 65 36 25 14 64 37 86 52
159 107 364 239 382 244 11 4 27 13 33 21 17 20 36 19 58 -3z m-1683 -82 c7
-11 162 -128 240 -180 77 -52 324 -251 396 -320 35 -34 105 -96 154 -138 50
-42 112 -96 138 -122 52 -48 124 -100 139 -100 16 0 -3 -124 -42 -286 -12 -49
-24 -100 -26 -114 -6 -32 -40 -148 -64 -220 -10 -30 -35 -110 -55 -177 -65
-219 -125 -393 -149 -431 -20 -33 -45 -57 -146 -142 -39 -34 -107 -100 -207
-201 -178 -183 -449 -441 -593 -564 -25 -22 -76 -70 -114 -107 -38 -37 -83
-72 -100 -78 -162 -52 -247 -81 -281 -96 -22 -9 -70 -18 -107 -19 l-68 -3 -12
59 c-7 32 -15 59 -19 59 -4 0 -5 9 -2 20 3 11 0 20 -6 20 -5 0 -8 7 -5 15 4 8
1 15 -5 15 -6 0 -11 7 -11 16 0 8 -12 41 -27 72 -14 31 -26 71 -27 89 0 17 -3
30 -7 27 -4 -2 -10 3 -13 12 -8 20 23 11 70 -21 56 -38 136 -59 191 -49 26 4
69 8 95 8 25 1 49 4 53 8 16 15 4 155 -19 228 -51 161 -80 221 -189 395 -111
176 -306 446 -368 509 -36 37 -42 50 -54 123 -14 89 -79 350 -100 406 -8 20
-13 37 -11 37 9 0 -53 185 -63 188 -15 5 -6 -53 15 -108 8 -19 28 -87 44 -150
17 -63 39 -149 51 -190 11 -41 22 -91 25 -110 3 -19 9 -50 14 -69 5 -19 8 -36
6 -38 -2 -2 -55 46 -117 108 -153 149 -195 188 -254 234 -27 21 -55 44 -61 52
-11 13 -81 63 -89 63 -2 0 -15 10 -28 23 -95 86 -152 125 -303 200 -140 69
-462 184 -570 203 -209 35 -292 45 -419 50 -161 6 -209 18 -284 74 -39 28 -44
32 -245 153 -80 48 -149 87 -153 87 -4 0 -21 9 -37 20 l-30 19 28 10 c53 21
225 39 436 46 108 4 155 9 250 27 30 5 73 13 95 17 23 4 45 10 51 14 6 3 42
-1 80 -9 105 -22 110 -23 238 -45 66 -11 123 -22 128 -25 4 -3 20 -7 35 -9 16
-2 58 -15 95 -28 37 -14 90 -28 118 -32 27 -4 50 -12 50 -18 0 -6 3 -7 7 -4 3
4 11 3 17 -1 6 -5 47 -21 91 -36 44 -16 94 -34 111 -42 17 -8 41 -15 52 -17
12 -2 25 -6 28 -10 4 -4 20 -7 36 -7 15 0 28 -4 28 -9 0 -5 16 -12 35 -15 19
-4 35 -11 35 -16 0 -5 16 -12 35 -16 19 -3 32 -10 29 -15 -3 -5 1 -9 8 -9 8 0
31 -9 52 -20 22 -10 42 -17 46 -15 4 3 20 -14 36 -38 16 -23 32 -43 37 -45 4
-2 7 -8 7 -13 0 -6 8 -19 18 -30 11 -10 25 -32 33 -47 26 -52 90 -142 100
-142 6 0 9 6 6 14 -3 8 0 17 7 19 8 3 25 41 39 84 15 43 41 116 58 163 17 47
48 133 68 192 24 71 41 108 51 108 25 0 234 71 250 85 8 7 38 19 65 28 28 8
86 29 130 46 44 18 109 42 145 56 60 22 189 74 235 94 11 5 43 19 70 31 103
46 235 112 240 121 8 12 32 12 40 -1z m3201 -30 c32 -16 71 -30 85 -30 26 0
26 -1 18 -47 -5 -26 -13 -50 -17 -55 -8 -8 -138 -39 -166 -39 -11 0 -28 -5
-40 -11 -11 -6 -35 -14 -52 -18 l-32 -7 20 33 c11 19 24 34 29 34 14 0 91 140
85 156 -8 20 4 18 70 -16z m-4016 -16 c-25 -7 -49 -13 -55 -13 -18 1 59 27 80
28 11 0 0 -7 -25 -15z m1390 -27 c0 -4 4 -6 9 -2 18 10 21 -13 4 -26 -14 -12
-16 -12 -8 0 6 11 4 13 -9 8 -9 -4 -15 -3 -11 2 3 6 -3 14 -12 20 -16 9 -15
10 5 8 12 -1 22 -5 22 -10z m3016 -165 c40 -110 42 -127 12 -137 -54 -18 -68
-15 -69 13 0 15 -1 85 -3 155 -3 145 -5 146 60 -31z m-2936 104 c0 -6 -4 -5
-9 3 -6 9 -11 10 -15 2 -4 -6 -12 -9 -17 -5 -6 4 -6 11 2 20 9 11 15 11 25 3
8 -6 14 -17 14 -23z m35 -16 c4 -6 -1 -7 -12 -3 -16 6 -17 5 -3 -13 14 -18 14
-18 -2 -5 -10 7 -15 17 -12 22 7 12 21 11 29 -1z m2992 -12 c-3 -8 -6 -5 -6 6
-1 11 2 17 5 13 3 -3 4 -12 1 -19z m-1237 -52 c0 -2 -7 -7 -16 -10 -8 -3 -12
-2 -9 4 6 10 25 14 25 6z m15 -64 c-3 -3 -11 0 -18 7 -9 10 -8 11 6 5 10 -3
15 -9 12 -12z m795 -44 c-6 -29 -45 -152 -85 -273 -41 -121 -99 -299 -129
-396 -45 -140 -66 -191 -102 -245 -25 -37 -51 -73 -58 -78 -7 -6 -25 -29 -41
-51 -15 -22 -33 -44 -39 -50 -6 -5 -35 -39 -65 -75 -81 -99 -132 -159 -181
-214 -25 -28 -65 -77 -90 -108 -27 -35 -63 -67 -94 -84 -28 -15 -53 -31 -56
-34 -3 -4 -15 -11 -28 -14 -16 -6 -32 -29 -54 -79 -25 -56 -173 -360 -207
-424 -3 -6 -22 -35 -42 -65 -20 -29 -49 -75 -64 -103 -46 -83 -188 -288 -225
-325 -33 -33 -224 -163 -327 -223 -26 -15 -67 -40 -89 -55 -115 -75 -184 -113
-195 -106 -7 4 -9 3 -6 -3 5 -7 -55 -49 -155 -108 -94 -56 -163 -94 -213 -120
-33 -16 -62 -33 -65 -36 -16 -19 -103 -60 -116 -55 -9 3 -12 2 -9 -4 7 -11
-22 -26 -32 -16 -4 3 16 39 44 79 27 39 67 105 88 144 21 41 42 70 48 66 6 -3
7 -1 3 5 -7 12 45 112 69 132 8 7 15 18 15 24 0 18 57 76 74 76 8 0 19 6 23
14 4 7 28 24 53 36 25 13 63 35 85 50 22 15 50 30 63 34 12 4 22 12 22 17 0 5
4 9 10 9 5 0 45 25 89 55 44 30 82 55 85 55 3 0 35 20 72 45 36 25 69 43 73
41 4 -3 13 0 21 6 12 8 11 8 -5 4 -16 -6 -15 -2 7 19 15 14 31 25 36 25 5 0
17 9 27 20 10 11 22 20 28 20 5 0 23 11 39 26 17 14 37 23 45 20 8 -3 12 -2 9
3 -3 5 23 28 59 51 36 23 65 47 65 53 0 6 3 8 6 4 3 -3 17 6 30 20 43 47 25 9
-44 -93 -37 -54 -93 -135 -123 -179 -29 -44 -56 -82 -59 -85 -27 -27 -91 -121
-86 -128 3 -5 -13 -26 -34 -47 -22 -22 -40 -45 -40 -52 0 -24 47 15 102 86 28
36 66 82 85 101 18 19 33 37 33 41 0 3 18 25 40 50 34 37 83 105 170 234 8 12
34 53 58 91 24 38 56 89 72 114 16 25 34 54 40 65 6 11 19 34 30 50 11 17 23
36 27 44 4 8 34 63 67 121 34 58 92 169 130 245 90 184 121 245 167 335 21 42
37 85 37 96 -2 19 24 92 59 173 8 18 16 39 18 45 1 6 7 25 14 41 7 17 17 53
23 80 11 54 38 115 50 115 5 0 8 7 8 15 0 9 6 18 14 21 17 7 155 203 189 270
19 37 36 54 67 69 23 10 92 66 153 124 62 58 137 129 167 158 30 28 56 50 59
48 2 -2 -2 -28 -9 -57z m-1143 -64 c32 -14 112 -45 178 -69 66 -23 143 -52
171 -65 l51 -22 12 -97 c6 -53 13 -130 16 -171 3 -41 7 -97 11 -125 4 -41 -2
-73 -34 -175 -41 -129 -120 -337 -149 -393 -45 -88 -364 -435 -572 -623 -30
-27 -69 -63 -86 -80 -17 -17 -45 -35 -63 -39 -18 -3 -32 -11 -32 -16 0 -5 -4
-9 -10 -9 -10 0 -107 -45 -320 -147 -74 -36 -159 -74 -189 -84 -30 -11 -59
-23 -65 -28 -6 -4 -41 -18 -78 -30 -36 -12 -71 -28 -77 -35 -6 -8 -33 -16 -60
-20 -76 -10 -110 -24 -104 -45 5 -21 -114 -334 -172 -451 -23 -47 -72 -146
-109 -220 -36 -74 -73 -148 -81 -163 -8 -16 -13 -33 -9 -38 3 -5 0 -9 -6 -9
-7 0 -9 -8 -5 -20 4 -14 2 -18 -7 -15 -8 3 -20 -10 -31 -33 -9 -20 -43 -82
-75 -136 -43 -73 -68 -104 -93 -118 -18 -10 -39 -18 -46 -18 -11 0 -53 46 -53
59 0 3 25 40 56 81 30 41 62 90 71 108 8 17 19 32 23 32 4 0 15 17 24 37 9 21
26 54 37 73 70 116 226 445 296 625 76 197 83 215 159 427 14 40 41 114 59
163 19 50 50 137 70 195 21 58 51 143 67 190 33 92 92 285 113 365 7 28 22 84
34 125 18 70 63 279 76 360 3 19 10 58 15 85 5 28 11 62 13 77 1 15 20 43 43
65 105 100 138 123 223 153 47 17 96 38 108 46 12 8 30 14 38 14 21 0 185 69
206 87 8 7 18 13 22 13 9 0 221 102 227 109 4 5 41 29 47 30 1 1 28 -11 60
-25z m797 2 c-6 -16 -24 -23 -24 -8 0 10 22 33 27 28 2 -2 1 -11 -3 -20z m-65
-100 c-22 -38 -28 -44 -25 -23 2 14 39 67 44 62 2 -1 -7 -19 -19 -39z m-4699
-106 c0 -5 -4 -10 -10 -10 -5 0 -10 5 -10 10 0 6 5 10 10 10 6 0 10 -4 10 -10z
m63 -27 c-7 -2 -19 -2 -25 0 -7 3 -2 5 12 5 14 0 19 -2 13 -5z m217 -133 c6
-11 8 -20 6 -20 -3 0 -10 9 -16 20 -6 11 -8 20 -6 20 3 0 10 -9 16 -20z m2650
-50 c0 -15 -5 -12 -26 11 -19 22 -19 22 4 10 12 -6 22 -16 22 -21z m-3965 -60
c72 -11 141 -22 155 -24 37 -8 292 -85 315 -95 11 -5 65 -26 120 -47 99 -37
331 -147 350 -166 13 -13 -65 -8 -82 5 -7 5 -13 7 -13 4 0 -3 -15 -1 -32 4
-18 6 -60 12 -93 14 -33 2 -78 9 -100 14 -22 5 -84 17 -137 26 -54 9 -98 21
-98 27 0 5 -6 15 -13 23 -16 16 -142 79 -177 90 -14 4 -59 23 -100 43 -65 31
-88 37 -180 43 -58 4 -117 8 -132 8 -17 1 -28 7 -28 15 0 7 -10 21 -22 29 -22
15 -18 16 57 11 44 -3 139 -13 210 -24z m4000 -47 c-4 -27 -9 -59 -11 -73 -4
-29 -7 -44 -34 -170 -39 -179 -42 -191 -47 -187 -3 4 37 230 73 405 17 81 30
98 19 25z m2793 -315 c6 -13 23 -51 37 -86 14 -34 47 -105 73 -157 27 -52 46
-95 43 -95 -3 0 -18 16 -34 35 -34 43 -146 106 -189 107 -95 2 -218 -39 -255
-84 -10 -13 -34 -35 -53 -49 -78 -58 -235 -232 -271 -301 -24 -46 -137 -232
-149 -245 -15 -18 -28 -16 -35 6 -5 18 -21 39 -63 86 -10 11 -24 34 -31 51 -7
18 -26 44 -42 60 -36 35 -36 52 0 123 15 31 39 90 52 131 13 41 30 82 39 90
26 26 153 107 205 130 27 13 63 33 80 45 16 13 77 47 135 78 108 56 144 65
350 84 30 3 57 7 59 9 12 11 39 1 49 -18z m-425 -554 c-2 -27 -14 -96 -28
-154 -14 -58 -25 -120 -25 -137 0 -18 -3 -33 -7 -33 -4 0 -9 -21 -9 -48 -1
-26 -5 -94 -9 -152 -7 -106 8 -324 24 -345 10 -12 25 -66 22 -78 -1 -5 2 -6 7
-3 5 3 16 -8 26 -25 9 -16 14 -29 10 -29 -4 0 1 -7 12 -15 10 -8 15 -15 11
-15 -5 0 -1 -7 7 -16 9 -8 13 -21 9 -27 -3 -7 -3 -9 2 -5 7 7 17 -1 43 -33 10
-14 9 -28 -9 -80 -12 -35 -30 -73 -40 -85 -11 -11 -19 -24 -19 -28 0 -8 -34
-54 -70 -94 -12 -12 -18 -22 -15 -22 8 0 -55 -91 -75 -108 -8 -8 -9 -11 -2 -7
7 3 -2 -17 -19 -47 -48 -80 -90 -140 -96 -134 -3 3 0 25 6 49 16 57 28 277 18
319 -5 18 -12 67 -17 108 -4 41 -16 115 -25 164 -9 48 -18 111 -20 140 -2 28
-6 65 -9 81 -32 175 -48 304 -49 410 -1 79 16 150 34 139 5 -2 11 8 15 23 4
15 12 34 17 42 6 7 16 21 22 30 70 118 218 275 250 267 6 -2 9 -25 8 -52z m87
17 c0 -5 24 -11 53 -13 71 -6 182 -60 208 -101 19 -33 25 -78 12 -91 -5 -4 -8
-11 -8 -14 -1 -4 -9 -25 -20 -47 -31 -67 -140 -180 -226 -236 -43 -28 -79 -56
-79 -60 0 -5 -7 -9 -15 -9 -13 0 -14 18 -10 128 12 294 20 382 40 440 5 14 45
17 45 3z m710 -303 c0 -15 -4 -30 -10 -33 -6 -3 -10 4 -10 18 0 14 -3 40 -6
58 l-5 34 15 -25 c8 -14 15 -37 16 -52z m-2573 -1028 c0 -14 8 -52 16 -85 9
-33 20 -98 27 -145 6 -47 13 -98 16 -115 5 -29 4 -29 -11 -10 -24 28 -69 127
-68 148 0 10 -2 15 -5 13 -5 -6 -26 15 -58 60 -10 14 -30 40 -43 56 -13 16
-22 30 -20 32 109 84 143 94 146 46z m-1455 -243 c-5 -7 -55 -101 -111 -210
-116 -227 -122 -237 -136 -237 -5 0 -29 20 -53 45 -24 25 -48 45 -55 46 -9 0
-9 2 1 6 23 9 12 21 -43 44 -30 12 -55 26 -55 31 0 4 24 22 53 38 78 46 88 52
140 88 26 17 50 32 54 32 3 0 37 23 75 50 38 28 72 50 76 50 4 0 19 11 32 24
24 22 42 17 22 -7z"/>
<path d="M5830 8664 c0 -8 5 -12 10 -9 6 4 8 11 5 16 -9 14 -15 11 -15 -7z"/>
<path d="M5386 8616 c3 -9 11 -16 16 -16 13 0 5 23 -10 28 -7 2 -10 -2 -6 -12z"/>
<path d="M6420 8209 c0 -9 10 -19 22 -22 28 -8 37 0 12 10 -10 3 -22 11 -26
17 -5 7 -8 5 -8 -5z"/>
<path d="M6613 8005 c-17 -8 -38 -24 -46 -35 -8 -12 -17 -16 -19 -10 -4 13
-128 -100 -128 -116 0 -7 -10 -12 -22 -13 -82 -5 -85 -6 -80 -26 3 -11 9 -26
15 -33 5 -7 6 -16 2 -20 -4 -4 -10 -2 -12 5 -3 7 -17 10 -39 6 -22 -4 -34 -2
-34 6 0 6 5 11 11 11 12 0 38 29 39 43 0 4 -4 7 -10 7 -5 0 -10 -7 -10 -15 0
-8 -3 -14 -7 -14 -24 4 -33 -4 -33 -25 0 -14 5 -28 10 -31 12 -8 13 -39 1 -63
-15 -30 -31 -110 -25 -127 9 -22 24 -19 24 5 0 12 10 24 23 29 13 5 30 23 37
40 11 27 18 31 49 31 20 0 42 5 49 12 9 9 12 9 12 0 0 -7 -4 -12 -10 -12 -5 0
-10 -5 -10 -11 0 -6 -7 -17 -15 -25 -8 -9 -15 -20 -15 -25 0 -15 20 -10 26 6
4 8 10 15 15 15 16 0 44 35 59 70 7 19 24 48 37 63 13 16 23 33 23 39 0 6 34
45 76 88 63 65 75 83 72 106 -4 34 -20 38 -65 19z m-323 -389 c0 -2 -7 -6 -15
-10 -8 -3 -15 -1 -15 4 0 6 7 10 15 10 8 0 15 -2 15 -4z"/>
<path d="M6400 7876 c0 -9 5 -16 10 -16 6 0 10 4 10 9 0 6 -4 13 -10 16 -5 3
-10 -1 -10 -9z"/>
<path d="M6650 7558 c0 -2 -2 -34 -5 -71 -3 -55 -1 -66 9 -58 16 13 22 131 7
131 -6 0 -11 -1 -11 -2z"/>
<path d="M8587 7281 c3 -12 9 -21 14 -21 14 0 11 16 -5 29 -12 10 -13 8 -9 -8z"/>
<path d="M4305 8750 c3 -5 8 -10 11 -10 2 0 4 5 4 10 0 6 -5 10 -11 10 -5 0
-7 -4 -4 -10z"/>
<path d="M4240 8710 c0 -5 5 -10 11 -10 5 0 7 5 4 10 -3 6 -8 10 -11 10 -2 0
-4 -4 -4 -10z"/>
<path d="M5591 7194 c0 -11 3 -14 6 -6 3 7 2 16 -1 19 -3 4 -6 -2 -5 -13z"/>
<path d="M5875 6800 c3 -5 8 -10 11 -10 2 0 4 5 4 10 0 6 -5 10 -11 10 -5 0
-7 -4 -4 -10z"/>
<path d="M5975 6770 c3 -5 8 -10 11 -10 2 0 4 5 4 10 0 6 -5 10 -11 10 -5 0
-7 -4 -4 -10z"/>
<path d="M8600 6370 c0 -5 5 -10 11 -10 5 0 7 5 4 10 -3 6 -8 10 -11 10 -2 0
-4 -4 -4 -10z"/>
<path d="M7789 5077 c-19 -15 -32 -47 -19 -47 6 0 10 7 10 15 0 8 5 15 11 15
5 0 7 -4 4 -10 -3 -5 -2 -10 3 -10 5 0 10 11 10 25 0 14 -1 25 -2 25 0 0 -8
-6 -17 -13z"/>
<path d="M1000 4986 c0 -2 7 -9 15 -16 9 -7 15 -8 15 -2 0 5 -7 12 -15 16 -8
3 -15 4 -15 2z"/>
<path d="M10 3829 c-11 -19 -10 -20 9 -9 12 6 21 15 21 20 0 18 -19 11 -30
-11z"/>
<path d="M295 3356 c-43 -20 -85 -68 -94 -107 -13 -57 -3 -177 18 -240 12 -32
21 -66 21 -74 0 -8 5 -15 10 -15 6 0 10 -6 10 -12 0 -7 18 -42 39 -78 22 -36
38 -67 36 -68 -7 -7 -159 111 -217 167 -32 32 -58 56 -58 54 0 -2 -13 11 -30
29 l-29 33 -1 -67 c0 -39 4 -68 10 -68 6 0 10 -7 10 -15 0 -8 6 -15 13 -15 16
-1 57 -35 57 -49 0 -6 7 -8 14 -5 18 7 76 -25 76 -42 0 -7 10 -9 24 -7 32 7
79 -37 69 -64 -6 -16 -5 -16 11 -4 13 11 19 12 29 2 9 -10 8 -11 -7 -5 -16 6
-18 4 -13 -9 8 -20 -2 -21 -25 -3 -13 10 -15 15 -6 24 9 9 8 12 -4 12 -9 0
-18 8 -21 19 -3 14 -12 18 -33 15 -16 -1 -34 2 -40 7 -7 6 -25 12 -40 15 -24
4 -26 3 -14 -11 15 -18 0 -21 -18 -3 -20 20 -14 26 23 23 19 -1 32 2 29 7 -3
4 -14 8 -25 8 -11 0 -30 5 -42 11 -12 7 -19 8 -15 4 4 -5 2 -15 -5 -23 -8 -10
-8 -13 -1 -9 15 9 28 -20 25 -53 -3 -28 -17 -48 -19 -28 -4 29 -10 54 -16 70
-4 9 -9 22 -10 30 -3 14 -13 42 -26 73 -5 12 -9 -53 -9 -163 -1 -141 2 -190
13 -210 15 -28 30 -99 71 -327 8 -44 17 -90 20 -102 5 -16 1 -24 -15 -33 -26
-14 -27 -13 -34 25 -3 17 -10 55 -16 85 -7 30 -14 69 -17 85 -2 17 -8 46 -13
65 -4 19 -8 -273 -9 -653 l-1 -688 21 6 c11 4 57 8 101 10 49 3 87 9 97 18 9
8 24 17 34 20 15 6 18 17 16 64 -1 32 -6 65 -10 73 -13 23 -61 252 -55 258 4
3 6 0 6 -7 0 -7 9 -26 20 -41 11 -15 27 -57 35 -91 25 -103 67 -232 83 -257
13 -21 13 -25 0 -39 -18 -18 -161 -49 -272 -59 l-76 -7 0 -458 0 -459 741 0
741 0 -37 50 c-48 65 -31 65 24 0 30 -36 49 -50 67 -50 l26 0 -27 33 c-15 17
-53 59 -84 92 -31 33 -68 74 -83 92 -14 18 -29 29 -32 26 -3 -4 -6 1 -6 9 0 9
-7 21 -15 28 -8 7 -21 24 -28 39 -32 63 -111 207 -120 219 -5 7 -7 16 -3 19 4
4 10 2 14 -4 4 -6 18 -11 32 -11 35 1 108 -9 155 -21 81 -19 295 -35 485 -36
170 0 467 14 494 25 21 8 35 30 42 67 1 6 16 40 33 75 16 35 35 83 42 108 14
52 20 311 8 353 -5 16 -11 66 -14 110 -10 145 -16 185 -29 190 -14 6 -28 66
-30 133 -1 22 -12 57 -24 78 -12 20 -22 43 -22 51 0 7 -7 15 -15 18 -8 4 -24
25 -36 49 -12 24 -28 50 -35 58 -8 8 -47 60 -86 115 -98 137 -257 335 -274
342 -8 3 -14 8 -14 12 0 12 -178 190 -270 271 -47 41 -87 78 -90 82 -21 28
-353 278 -369 278 -6 0 -11 3 -11 8 0 4 -36 30 -80 57 -71 44 -125 81 -314
217 -126 91 -176 120 -251 149 -94 36 -167 45 -210 25z m110 -65 c64 -20 185
-76 194 -89 4 -4 24 -19 46 -31 22 -13 82 -51 133 -84 74 -48 90 -62 81 -73
-13 -16 -49 -19 -49 -4 0 6 7 10 16 10 8 0 12 5 9 10 -5 8 -11 7 -21 -1 -19
-15 -18 -68 1 -75 26 -10 -3 -34 -40 -34 -24 0 -34 -5 -38 -20 -3 -11 -10 -20
-16 -20 -6 0 -19 9 -28 20 -10 11 -30 20 -45 20 -26 0 -28 3 -28 40 0 29 -4
40 -15 40 -11 0 -15 -11 -15 -40 0 -32 -4 -40 -19 -40 -21 0 -90 -79 -96 -111
-5 -24 -15 -39 -15 -21 0 6 -7 9 -15 6 -12 -5 -13 -9 -4 -20 10 -12 9 -13 -5
-8 -9 3 -16 9 -17 13 -1 11 -7 35 -17 66 -5 17 -8 40 -6 53 2 12 -1 22 -7 22
-5 0 -7 -4 -4 -10 3 -5 1 -10 -4 -10 -6 0 -11 5 -11 12 0 6 -11 34 -25 62 -22
45 -30 77 -49 189 -3 17 0 27 7 27 8 0 9 3 1 8 -9 6 -11 28 -5 95 1 22 30 22
106 -2z m-141 -221 c3 -14 8 -41 11 -60 l5 -35 -16 34 c-8 19 -17 71 -19 120
-4 80 -3 82 5 26 4 -33 11 -71 14 -85z m716 -137 c0 -2 -4 -2 -9 1 -5 4 -12 0
-14 -6 -4 -8 -6 -7 -6 4 -1 9 -6 20 -13 24 -6 4 -8 3 -5 -4 5 -6 -1 -8 -15 -4
-12 3 -17 7 -10 10 6 2 12 9 12 15 0 5 -3 7 -7 4 -9 -9 -34 13 -27 24 5 8 94
-56 94 -68z m105 -81 c-3 -3 -11 0 -18 7 -9 10 -8 11 6 5 10 -3 15 -9 12 -12z
m-605 -119 c-1 -18 -18 -35 -24 -24 -4 6 -4 16 -1 21 7 12 25 13 25 3z m60
-98 c0 -2 -9 -9 -20 -15 -12 -6 -20 -7 -20 -1 0 5 8 12 18 14 9 3 18 5 20 6 1
0 2 -1 2 -4z m-419 -38 c-10 -9 -11 -8 -5 6 3 10 9 15 12 12 3 -3 0 -11 -7
-18z m2 -62 c-3 -9 -8 -14 -10 -11 -3 3 -2 9 2 15 9 16 15 13 8 -4z"/>
<path d="M380 2980 c0 -5 5 -10 11 -10 5 0 7 5 4 10 -3 6 -8 10 -11 10 -2 0
-4 -4 -4 -10z"/>
<path d="M448 2878 c2 -10 -3 -27 -12 -37 -14 -15 -15 -21 -4 -27 19 -12 39
-14 32 -3 -3 5 -11 7 -17 3 -7 -3 -4 1 7 10 10 8 20 28 22 45 3 24 0 29 -15
28 -12 -1 -17 -7 -13 -19z"/>
<path d="M1351 334 c45 -71 106 -158 134 -194 28 -36 61 -82 74 -102 l23 -38
91 1 92 0 -50 42 c-27 23 -120 112 -205 197 -85 85 -174 171 -198 189 l-44 34
83 -129z"/>
</g>
</svg>
